<svg id="Layer_1" data-name="Layer 1" xmlns="http://www.w3.org/2000/svg" viewBox="0 0 412.36 110.58"><path d="M135.91,200.91c-5.9,11.14-11.53,39.72,13.14,65C158,256.18,167.86,229.56,135.91,200.91Z" transform="translate(-44.61 -194.27)"/><path d="M155.75,291.91c-3.94-12.93,2.93-44.76,60.09-80C211.61,239.53,193.33,291.91,155.75,291.91Z" transform="translate(-44.61 -194.27)"/><path d="M142.43,295.34c-63,7.05-99.85-62.91-97.74-101.07,6.05,1,38.45,13.55,70.72,45.44C146.09,276.4,155.24,293.9,142.43,295.34Z" transform="translate(-44.61 -194.27)"/><path d="M281.36,253.73q0,6.91-5.11,10.51t-13.76,3.53H256.3V289h-7V241.35H264.8q7.27,0,11.88,3.31A10.52,10.52,0,0,1,281.36,253.73Zm-25.06,12h6.41a11.9,11.9,0,0,0,5.76-1.29,8.25,8.25,0,0,0,3.53-3.31,14.74,14.74,0,0,0,1.94-7,11.77,11.77,0,0,0-.86-4,9.68,9.68,0,0,0-7.13-6.19,36.64,36.64,0,0,0-9.65,1.22Zm35.79-25.84V289h-6V239.84Zm24.45,41.54V274a19.28,19.28,0,0,0-8.5,2.31c-2.21,1.29-3.31,2.69-3.31,4.17a6.61,6.61,0,0,0,1.15,3.89,6.13,6.13,0,0,0,2.95,2.23,12.43,12.43,0,0,0,5-2.37C315.65,282.89,316.54,282,316.54,281.38Zm5.9-1.94a8.93,8.93,0,0,0,3.75,7.77L322.44,290l-5.83-5.26q-5.69,5.19-10.51,5.19a8,8,0,0,1-5.47-2,6.5,6.5,0,0,1-2.24-5,7.38,7.38,0,0,1,1.8-5.11,12,12,0,0,1,4.9-3.1,42.49,42.49,0,0,1,11.45-2.45V265.4q0-6-6.91-6a31.5,31.5,0,0,0-9.36,1.73l-.65-1.8a18.54,18.54,0,0,1,5-2.45,20.31,20.31,0,0,1,6.84-1.3,14.54,14.54,0,0,1,5.4.87,8.78,8.78,0,0,1,3.24,1.94,7,7,0,0,1,1.65,2.95,13.76,13.76,0,0,1,.65,3c.05.72.07,1.68.07,2.88Zm15.73-18.36a29.75,29.75,0,0,1,5.26-4.18,10.9,10.9,0,0,1,5.4-1.3,8.15,8.15,0,0,1,5.69,2.45q2.66,2.44,2.66,8.43V289h-6.12V267.2a8.76,8.76,0,0,0-1.29-5.26q-1.23-1.8-4.32-1.8t-7.06,4V289h-6.12V266.4a9.54,9.54,0,0,0-3.67-7.84l3.67-2.74Zm35.44,21.6a5.16,5.16,0,0,0,.86,3.24,3.49,3.49,0,0,0,2.88,1.08,13.83,13.83,0,0,0,4.83-1.08v2a18,18,0,0,1-7.49,1.95,7.45,7.45,0,0,1-5.26-1.8c-1.24-1.25-1.87-3.17-1.87-5.76V259.06l-5.83-1.15v-1.44h5.83v-2.59l6.05-4.4v7h8.57v2.59h-8.57Zm37.1-26.21h2.74l-12.32,33.62A24.48,24.48,0,0,1,394,300.75a16.12,16.12,0,0,1-10.44,4.1l.72-3.6q9.72-.36,15.12-12.6l-14.62-32.18h6.41l11,24.41Zm6.38-16.2h5.83v5L420.83,258H419.1l-2-12.67Zm27,30.81L457,289h-7.13l-9.28-13.61L430.61,289h-3.46l12-15.19-11.74-17.35h7.13l8.21,13.1,9.64-13.1h3.53Z" transform="translate(-44.61 -194.27)"/></svg>